<svg width="23" height="25" viewBox="0 0 23 25" fill="none" xmlns="http://www.w3.org/2000/svg">
<g clip-path="url(#clip0)">
<path d="M11.0506 13.7944C14.4666 13.7944 17.2381 10.7709 17.2381 7.04437C17.2381 3.31781 14.4666 0.294373 11.0506 0.294373C7.63462 0.294373 4.86313 3.31781 4.86313 7.04437C4.86313 10.7709 7.63462 13.7944 11.0506 13.7944ZM16.5506 15.2944H14.1831C13.2291 15.7725 12.1678 16.0444 11.0506 16.0444C9.93344 16.0444 8.87641 15.7725 7.91821 15.2944H5.55063C2.51274 15.2944 0.0506325 17.9803 0.0506325 21.2944V22.0444C0.0506325 23.2866 0.974461 24.2944 2.11313 24.2944H19.9881C21.1268 24.2944 22.0506 23.2866 22.0506 22.0444V21.2944C22.0506 17.9803 19.5885 15.2944 16.5506 15.2944Z" fill="black"/>
</g>
<defs>
<clipPath id="clip0">
<rect width="22" height="24" fill="white" transform="translate(0.0506325 0.294373)"/>
</clipPath>
</defs>
</svg>
